<?xml version="1.0" encoding="UTF-8"?>
<svg id="Layer_2" data-name="Layer 2" xmlns="http://www.w3.org/2000/svg" viewBox="0 0 40.47 40">
  <defs>
    <style>
      .cls-1 {
        fill: #e42313;
      }
    </style>
  </defs>
  <g id="Layer_1-2" data-name="Layer 1">
    <path class="cls-1" d="M40.47,20c0,11.05-9.06,20-20.24,20S0,31.04,0,20c0-3.04.69-5.93,1.92-8.51-.82,2.05-1.19,4.08-1.19,5.98,0,9.05,7.4,10.37,10.55,10.34,4.78-.05,10.38-2.36,15.09-6.65,0,0-.61,3.37-.79,4.42-.18,1.01.49,1.9,1.51,1.9h.42c1.06,0,1.81-.85,2-1.9l1.7-9.44c.2-1.05-.49-1.9-1.55-1.9h-9.56c-1.06,0-2.03.56-2.22,1.61-.01.06-.07.36-.08.43-.15,1.01.55,1.76,1.57,1.76h4.99c-.08.08-.15.15-.24.23-3.44,3.22-7.68,4.98-11.19,4.98s-7.44-2.19-7.44-7.11C5.47,5.93,15.16,0,20.24,0c11.15,0,20.24,8.95,20.24,20h0Z"/>
  </g>
</svg>