<?xml version="1.0" encoding="UTF-8"?>
<svg id="Layer_2" data-name="Layer 2" xmlns="http://www.w3.org/2000/svg" viewBox="0 0 51.22 34">
  <defs>
    <style>
      .cls-1 {
        fill: #ff6100;
      }
    </style>
  </defs>
  <g id="Layer_1-2" data-name="Layer 1">
    <path class="cls-1" d="M0,24.22v9.47h6.96v-8.3c0-3.69,2.05-6.07,7.03-6.24v-6.95c-9.16.16-13.99,4.88-13.99,12.03M40.21,11.89c-5.93-.2-10.89,4.44-11.1,10.36,0,.23,0,.46,0,.69,0,6.31,3.86,10.44,10.39,11.06l4.57-3.44.15.07v3.05h7v-10.75c0-6.69-4.4-11.09-11.01-11.06M40.21,27.2c-2.24.05-4.09-1.72-4.15-3.96,0-.1,0-.2,0-.31-.12-2.24,1.6-4.15,3.84-4.26.1,0,.2,0,.31,0,2.2-.04,4.02,1.71,4.06,3.92,0,.12,0,.23,0,.35.14,2.21-1.54,4.12-3.75,4.26-.1,0-.2,0-.31,0M25.55,12.2h-6.96v21.5h6.96V12.2ZM22.07,0c-2.56,0-4.63,2.07-4.63,4.63,0,.3.03.6.09.9.59,2.49,3.09,4.04,5.59,3.45,2.03-.48,3.49-2.26,3.57-4.34,0-.61-.12-1.21-.35-1.77C25.61,1.13,23.93,0,22.06,0h.01Z"/>
  </g>
</svg>